<?xml version="1.0" encoding="UTF-8"?>
<svg width="146px" height="146px" viewBox="0 0 146 146" version="1.1" xmlns="http://www.w3.org/2000/svg" xmlns:xlink="http://www.w3.org/1999/xlink">
    <!-- Generator: Sketch 51.3 (57544) - http://www.bohemiancoding.com/sketch -->
    <title>Ethical</title>
    <desc>Created with Sketch.</desc>
    <defs></defs>
    <g id="Page-1" stroke="none" stroke-width="1" fill="none" fill-rule="evenodd">
        <g id="Artboard" transform="translate(-52.000000, -52.000000)" stroke="#FFFFFF" stroke-width="5">
            <g id="Ethical" transform="translate(55.000000, 55.000000)">
                <circle id="Oval" cx="70" cy="70" r="70"></circle>
                <path d="M84,2 C77.2207575,2.01076664 71.5540908,3.01076664 67,5 C55.623098,9.96944701 48,7 48,14 C48,25 62,12.8300059 62,38 C62,50 72.9257502,27.5639809 88,38 C101,47 100.401351,59 107,59 C113.598649,59 113,45 116,38 C118.959446,31.0946269 127.667408,27.5456578 134,42" id="Line" stroke-linecap="square"></path>
                <path d="M107.488208,72.2446546 C107.041551,72.1101837 106.252973,72.042426 104.861133,72.0203554 C104.706625,72.017979 104.706625,72.017979 104.549872,72.0157148 C100.776195,71.9611816 99.5079412,71.7615364 98.1875434,70.1226663 C97.1344259,68.8155429 96.6138207,67.1774491 95.6594233,63.1906877 C95.6184988,63.0197356 95.4769298,62.4263395 95.4523289,62.3234468 C94.9062352,60.0394274 94.5843943,58.8532398 94.205327,57.847733 C94.0186008,57.3524266 93.8416487,56.9822903 93.6919814,56.7524492 C92.6899624,56.5225801 91.4844773,56.5824705 88.2806446,56.9241695 C84.2267236,57.3565331 81.899996,57.4120061 79.0511282,56.8943794 C77.3437169,56.5841503 76.2558719,56.2869136 72.8178627,55.2636034 C66.0865235,53.2600463 62.8590411,52.8983968 59.2371163,54.3566 C59.091424,54.4152563 58.9462605,54.47711 58.8015784,54.542217 C47.2909766,59.7219878 45.5372167,64.8184755 49.270076,75.3196911 C50.219719,77.9912105 52.42525,78.9796746 57.0754592,79.2180422 C57.7373494,79.2519704 58.2512808,79.2672871 59.4982204,79.295929 C62.6133604,79.3674832 63.908771,79.4632068 65.3966428,79.8662589 C67.7957409,80.5161547 69.4592754,81.9478996 69.9893416,84.2953359 C70.1427702,84.9748053 70.285513,85.8887425 70.4353039,87.0975894 C70.681126,89.0814292 71.5916709,98.638502 71.6457881,99.1647151 C71.8352725,101.007182 72.0164615,102.615305 72.2029655,104.080445 C73.1062535,111.176503 77.9228666,117.067738 83.7125038,119.464087 C86.0674091,120.43879 87.1415546,120.191559 88.0252664,118.965095 C88.9659301,117.65959 89.5829232,115.589564 90.3540012,111.5692 C90.4096841,111.278872 90.464613,110.989272 90.5752571,110.404827 C91.2629182,106.77914 91.671767,105.089075 92.4133248,103.394086 C94.1804897,99.3548519 95.21073,93.8602365 95.4637386,86.927056 L95.505528,85.7819023 L96.400338,85.0660543 C103.208978,79.6191424 106.884557,75.2752765 107.457935,72.4083869 C107.471014,72.3429927 107.480704,72.2887185 107.488208,72.2446546 Z M102.07286,66.9753742 C102.075608,66.9788864 102.078349,66.9823399 102.081084,66.985735 C102.072879,66.9755498 102.064763,66.9657917 102.056758,66.9564506 Z M101.870965,66.7920082 C101.866586,66.7896712 101.862611,66.7877496 101.859069,66.7862288 C101.869271,66.7906101 101.880767,66.7951104 101.893544,66.7997023 Z" id="Rectangle-2"></path>
                <path d="M107.457623,96.2995266 C108.126782,95.0485354 108.609659,93.8554694 108.939828,92.7026805 C109.114489,92.0928526 109.239488,91.5203839 109.333918,90.9426436 C109.388576,90.6082297 109.501125,89.7476368 109.479447,89.9004599 C109.471028,89.959809 109.45856,90.0143029 109.316181,90.280766 C108.813257,91.221996 107.684277,91.7061741 106.655981,91.4178721 C106.358514,91.3344718 106.295847,91.2960737 106.26093,91.2694737 C106.386797,91.36536 106.534319,91.4864557 106.956859,91.839203 C107.332122,92.1524815 107.600531,93.8158411 107.457623,96.2995266 Z M106.156516,104.124469 C105.911169,105.101534 105.645516,106.040246 105.371683,106.895976 C105.118396,107.687498 104.840752,108.162129 104.594083,108.38865 C104.511849,108.464167 104.485013,108.475171 104.436692,108.477687 C104.257937,108.486994 103.892292,108.324593 103.876646,108.308947 C104.38114,108.813441 104.527595,109.372067 104.496926,109.846896 C104.490163,109.951605 104.488783,109.957262 104.504447,109.912864 C104.592763,109.662538 104.73927,109.346905 105.096685,108.625762 L105.100996,108.617064 C106.052569,106.697137 106.261504,106.190347 106.21941,105.139092 C106.205458,104.790656 106.185269,104.465475 106.156516,104.124469 Z" id="Rectangle-3"></path>
                <path d="M17.5,24.5 C23.2067727,26.4580019 25.040106,30.6246686 23,37 C21.8969058,40.4471694 16.7536487,42.4715997 12.6529396,49.5 C10.7897921,52.6933372 14.6596859,67.2022163 11,76 C10.3988673,77.4451064 7.23220065,76.9451064 1.5,74.5" id="Line-2" stroke-linecap="square"></path>
                <path d="M35.9065377,87.6638239 C44.7976612,92.8078764 48.2231698,98.5675684 46.1830638,104.9429 C45.0799696,108.390069 54.9915105,117.722778 50.8908015,124.751178 C49.0276539,127.944515 35.8288396,125.674501 32.1691537,134.472284 C31.568021,135.917391 29.0726577,138.574262 24.6830638,142.4429" id="Line-2" stroke-linecap="square" transform="translate(38.286799, 115.053362) rotate(-68.000000) translate(-38.286799, -115.053362) "></path>
            </g>
        </g>
    </g>
</svg>