<?xml version="1.0" encoding="UTF-8"?>
<svg width="117px" height="140px" viewBox="0 0 117 140" version="1.1" xmlns="http://www.w3.org/2000/svg" xmlns:xlink="http://www.w3.org/1999/xlink">
    <!-- Generator: Sketch 51.3 (57544) - http://www.bohemiancoding.com/sketch -->
    <title>Mission</title>
    <desc>Created with Sketch.</desc>
    <defs></defs>
    <g id="Page-1" stroke="none" stroke-width="1" fill="none" fill-rule="evenodd">
        <g id="Artboard" transform="translate(-67.000000, -63.000000)">
            <g id="Mission" transform="translate(51.000000, 48.000000)">
                <g id="Stem" transform="translate(37.000000, 74.000000)">
                    <rect id="Rectangle-2" fill="#FFFFFF" transform="translate(37.000000, 40.500000) rotate(-90.000000) translate(-37.000000, -40.500000) " x="-3" y="38" width="80" height="5" rx="2.5"></rect>
                    <path d="M59,45 C64.3333333,41.2690396 67,37.1023729 67,32.5 C67,27.8976271 64.3333333,23.7309604 59,20 C53.6666667,23.7309604 51,27.8976271 51,32.5 C51,37.1023729 53.6666667,41.2690396 59,45 Z" id="Oval-2" stroke="#FFFFFF" stroke-width="5" transform="translate(59.000000, 32.500000) rotate(-315.000000) translate(-59.000000, -32.500000) "></path>
                    <path d="M15,60 C20.3333333,56.2690396 23,52.1023729 23,47.5 C23,42.8976271 20.3333333,38.7309604 15,35 C9.66666667,38.7309604 7,42.8976271 7,47.5 C7,52.1023729 9.66666667,56.2690396 15,60 Z" id="Oval-2" stroke="#FFFFFF" stroke-width="5" transform="translate(15.000000, 47.500000) rotate(-45.000000) translate(-15.000000, -47.500000) "></path>
                </g>
                <g id="Bill" transform="translate(74.500000, 46.000000) rotate(7.000000) translate(-74.500000, -46.000000) translate(12.000000, 8.000000)">
                    <circle id="Oval-3" fill="#FFFFFF" cx="17.5074538" cy="27.6218693" r="4.5"></circle>
                    <circle id="Oval-3" fill="#FFFFFF" cx="21.1418458" cy="59.6442309" r="4.5"></circle>
                    <circle id="Oval-3" fill="#FFFFFF" cx="103.773554" cy="15.9725697" r="4.5"></circle>
                    <circle id="Oval-3" fill="#FFFFFF" cx="107.537269" cy="49.1093467" r="4.5"></circle>
                    <path d="M9,10 C7.61928813,10 6.5,11.1192881 6.5,12.5 L6.5,63.5 C6.5,64.8807119 7.61928813,66 9,66 L116,66 C117.380712,66 118.5,64.8807119 118.5,63.5 L118.5,12.5 C118.5,11.1192881 117.380712,10 116,10 L9,10 Z" id="Rectangle-3" stroke="#FFFFFF" stroke-width="5" transform="translate(62.500000, 38.000000) rotate(-7.000000) translate(-62.500000, -38.000000) "></path>
                    <path d="M62.2726285,28.8781307 L62.4953624,30.6921525 C63.2378373,30.7199887 63.8627961,30.8875144 64.3702576,31.1947345 C64.8777191,31.5019545 65.3874418,32.0061791 65.899441,32.7074233 L64.2185417,33.937839 C63.5543502,33.0172803 62.7841836,32.6107968 61.908019,32.7183762 C61.3650438,32.7850452 60.9343253,33.0007714 60.6158506,33.3655613 C60.2973758,33.7303513 60.1676869,34.1533766 60.2267798,34.6346501 C60.2805696,35.0727324 60.4702643,35.4189638 60.7958697,35.6733546 C61.1145474,35.9223329 61.7296536,36.1881464 62.6412067,36.470803 C63.4294658,36.7184927 64.0856792,36.9620353 64.6098665,37.2014381 C65.1340539,37.440841 65.5365911,37.6842156 65.8174901,37.9315693 C66.6071471,38.5987214 67.0675013,39.4660044 67.1985664,40.5334444 C67.3273588,41.5823738 67.1263232,42.546523 66.5954538,43.4259209 C66.069997,44.2983911 65.3029465,44.9374628 64.2942794,45.3431553 L64.5295136,47.2589845 L62.9098512,47.457854 L62.6814354,45.5975561 C61.4478382,45.5486006 60.4742738,45.24538 59.7607129,44.6878851 C59.0471521,44.1303903 58.4577691,43.2069244 57.9925462,41.9174597 L59.9764188,41.2417124 C60.3692321,42.1454867 60.7907851,42.7732729 61.2410905,43.12509 C61.7076336,43.4561238 62.2895112,43.5788344 62.9867408,43.4932254 C63.6654598,43.4098891 64.2062128,43.1211529 64.6090158,42.6270081 C65.0064063,42.139791 65.1630523,41.5537467 65.0789585,40.8688575 C65.0039559,40.2580103 64.75554,39.7905954 64.3337033,39.4665988 C64.1204575,39.3111494 63.8133652,39.143739 63.4124173,38.9643626 C63.0114693,38.7849862 62.5047164,38.5982494 61.8921432,38.4041466 C60.6292182,38.0143163 59.7819257,37.6173026 59.3502402,37.2130937 C58.6691548,36.6140322 58.2710403,35.8455799 58.1558848,34.9077136 C58.1013375,34.4634611 58.1215348,34.0413534 58.2164775,33.6413778 C58.3114201,33.2414022 58.4739608,32.8691453 58.7041045,32.5245959 C58.9342481,32.1800465 59.2327453,31.8693849 59.5996052,31.592602 C59.966465,31.3158191 60.3918257,31.0819614 60.8757001,30.891022 L60.6529662,29.0770002 L62.2726285,28.8781307 Z" id="$" fill="#FFFFFF"></path>
                    <circle id="Oval-4" stroke="#FFFFFF" stroke-width="3" cx="62.5" cy="38.5" r="15.5"></circle>
                </g>
            </g>
        </g>
    </g>
</svg>