<?xml version="1.0" encoding="UTF-8"?>
<svg width="180px" height="134px" viewBox="0 0 180 134" version="1.1" xmlns="http://www.w3.org/2000/svg" xmlns:xlink="http://www.w3.org/1999/xlink">
    <!-- Generator: Sketch 51.3 (57544) - http://www.bohemiancoding.com/sketch -->
    <title>Flag</title>
    <desc>Created with Sketch.</desc>
    <defs></defs>
    <g id="Page-1" stroke="none" stroke-width="1" fill="none" fill-rule="evenodd">
        <g id="Artboard" transform="translate(-35.000000, -59.000000)">
            <g id="Flag" transform="translate(34.000000, 56.000000)">
                <path d="M7.65509724,101.417441 C34.9056302,102.946853 60.964484,102.895589 85.8316585,101.263649 C110.663207,99.634048 136.164359,99.5805962 162.335115,101.103294 L162.335116,101.103272 C163.831287,101.190324 165,102.429013 165,103.927715 L165,103.927715 C165,105.301563 163.886276,106.415286 162.512428,106.415286 C162.457579,106.415286 162.402744,106.413472 162.348014,106.409847 C136.780275,104.71625 111.231042,104.7769 85.7003156,106.59178 C60.1439738,108.40848 34.1320179,108.46743 7.66444788,106.768628 L7.66444589,106.768659 C6.16608513,106.672487 5,105.429158 5,103.927715 L5,103.927715 C5,102.539154 6.12565033,101.413504 7.51421039,101.413504 C7.56120011,101.413504 7.60818059,101.414821 7.65509648,101.417455 Z" id="Rectangle-2" fill="#FFFFFF" transform="translate(85.000000, 104.000000) rotate(-170.000000) translate(-85.000000, -104.000000) "></path>
                <path d="M9.65509724,87.417441 C36.9056302,88.9468527 62.964484,88.8955889 87.8316585,87.2636494 C112.663207,85.634048 138.164359,85.5805962 164.335115,87.1032942 L164.335116,87.1032721 C165.831287,87.1903241 167,88.4290132 167,89.9277146 L167,89.9277146 C167,91.3015626 165.886276,92.4152864 164.512428,92.4152864 C164.457579,92.4152864 164.402744,92.4134723 164.348014,92.4098471 C138.780275,90.7162495 113.231042,90.7768998 87.7003156,92.5917797 C62.1439738,94.4084805 36.1320179,94.4674298 9.66444788,92.7686276 L9.66444589,92.7686586 C8.16608513,92.6724874 7,91.4291585 7,89.9277146 L7,89.9277146 C7,88.5391545 8.12565033,87.4135042 9.51421039,87.4135042 C9.56120011,87.4135042 9.60818059,87.4148215 9.65509648,87.4174546 Z" id="Rectangle-2" fill="#FFFFFF" transform="translate(87.000000, 90.000000) rotate(-170.000000) translate(-87.000000, -90.000000) "></path>
                <path d="M11.6550972,73.417441 C38.9056302,74.9468527 64.964484,74.8955889 89.8316585,73.2636494 C114.663207,71.634048 140.164359,71.5805962 166.335115,73.1032942 L166.335116,73.1032721 C167.831287,73.1903241 169,74.4290132 169,75.9277146 L169,75.9277146 C169,77.3015626 167.886276,78.4152864 166.512428,78.4152864 C166.457579,78.4152864 166.402744,78.4134723 166.348014,78.4098471 C140.780275,76.7162495 115.231042,76.7768998 89.7003156,78.5917797 C64.1439738,80.4084805 38.1320179,80.4674298 11.6644479,78.7686276 L11.6644459,78.7686586 C10.1660851,78.6724874 9,77.4291585 9,75.9277146 L9,75.9277146 C9,74.5391545 10.1256503,73.4135042 11.5142104,73.4135042 C11.5612001,73.4135042 11.6081806,73.4148215 11.6550965,73.4174546 Z" id="Rectangle-2" fill="#FFFFFF" transform="translate(89.000000, 76.000000) rotate(-170.000000) translate(-89.000000, -76.000000) "></path>
                <path d="M82.9028516,63.2000884 C115.319114,65.2256467 144.25567,65.1635285 169.712519,63.0137338 C173.600107,62.6854325 174.565073,68.347278 169.712519,68.8406294 C142.267253,71.6309459 113.333256,71.7170487 82.9105277,69.0989377 L82.9105275,69.0989401 C81.264226,68.9572632 80,67.579568 80,65.9271816 L80,65.9271816 C80,64.4180929 81.2233581,63.1947348 82.7324468,63.1947348 C82.7892906,63.1947348 82.8461206,63.1965086 82.9028538,63.2000536 Z" id="Rectangle-2" fill="#FFFFFF" transform="translate(126.500000, 67.000000) rotate(-170.000000) translate(-126.500000, -67.000000) "></path>
                <path d="M85.9028516,49.2000884 C118.319114,51.2256467 147.25567,51.1635285 172.712519,49.0137338 C176.600107,48.6854325 177.565073,54.347278 172.712519,54.8406294 C145.267253,57.6309459 116.333256,57.7170487 85.9105277,55.0989377 L85.9105275,55.0989401 C84.264226,54.9572632 83,53.579568 83,51.9271816 L83,51.9271816 C83,50.4180929 84.2233581,49.1947348 85.7324468,49.1947348 C85.7892906,49.1947348 85.8461206,49.1965086 85.9028538,49.2000536 Z" id="Rectangle-2" fill="#FFFFFF" transform="translate(129.500000, 53.000000) rotate(-170.000000) translate(-129.500000, -53.000000) "></path>
                <path d="M87.9028516,34.2000884 C120.319114,36.2256467 149.25567,36.1635285 174.712519,34.0137338 C178.600107,33.6854325 179.565073,39.347278 174.712519,39.8406294 C147.267253,42.6309459 118.333256,42.7170487 87.9105277,40.0989377 L87.9105275,40.0989401 C86.264226,39.9572632 85,38.579568 85,36.9271816 L85,36.9271816 C85,35.4180929 86.2233581,34.1947348 87.7324468,34.1947348 C87.7892906,34.1947348 87.8461206,34.1965086 87.9028538,34.2000536 Z" id="Rectangle-2" fill="#FFFFFF" transform="translate(131.500000, 38.000000) rotate(-170.000000) translate(-131.500000, -38.000000) "></path>
                <rect id="Rectangle-2" fill="#FFFFFF" transform="translate(84.000000, 46.000000) rotate(-80.000000) translate(-84.000000, -46.000000) " x="54" y="43" width="60" height="6" rx="3"></rect>
                <path d="M14.1650999,18.2533881 C14.1072694,18.249359 14.0493164,18.2473427 13.9913458,18.2473427 C12.6106394,18.2473427 11.4913558,19.3666263 11.4913558,20.7473329 L11.4913458,116.813568 C11.4913458,118.131322 12.514199,119.222823 13.829177,119.308303 C40.0086958,121.010065 65.9160679,120.902924 91.5521076,118.987123 C117.119247,117.07647 142.818661,117.939156 168.647326,121.574577 C168.767681,121.591517 168.889111,121.599658 169.010651,121.598935 C170.391343,121.590717 171.503953,120.464783 171.495736,119.08409 L170.91588,21.6632819 C170.908377,20.4026974 169.963516,19.3449041 168.711765,19.1957281 C142.943552,16.1248019 117.648405,15.677493 92.8238171,17.8526906 C67.8953057,20.0369944 41.6756403,20.1700582 14.1650999,18.2533881 Z" id="Rectangle-4" stroke="#FFFFFF" stroke-width="5" transform="translate(91.493564, 69.049305) rotate(10.000000) translate(-91.493564, -69.049305) "></path>
                <circle id="Oval" fill="#FFFFFF" cx="27.5" cy="16.5" r="1.5"></circle>
                <circle id="Oval" fill="#FFFFFF" cx="34.5" cy="18.5" r="1.5"></circle>
                <circle id="Oval" fill="#FFFFFF" cx="42.5" cy="20.5" r="1.5"></circle>
                <circle id="Oval" fill="#FFFFFF" cx="51.5" cy="23.5" r="1.5"></circle>
                <circle id="Oval" fill="#FFFFFF" cx="60.5" cy="24.5" r="1.5"></circle>
                <circle id="Oval" fill="#FFFFFF" cx="25.5" cy="28.5" r="1.5"></circle>
                <circle id="Oval" fill="#FFFFFF" cx="31.5" cy="31.5" r="1.5"></circle>
                <circle id="Oval" fill="#FFFFFF" cx="39.5" cy="33.5" r="1.5"></circle>
                <circle id="Oval" fill="#FFFFFF" cx="48.5" cy="35.5" r="1.5"></circle>
                <circle id="Oval" fill="#FFFFFF" cx="57.5" cy="36.5" r="1.5"></circle>
                <circle id="Oval" fill="#FFFFFF" cx="22.5" cy="41.5" r="1.5"></circle>
                <circle id="Oval" fill="#FFFFFF" cx="29.5" cy="43.5" r="1.5"></circle>
                <circle id="Oval" fill="#FFFFFF" cx="37.5" cy="45.5" r="1.5"></circle>
                <circle id="Oval" fill="#FFFFFF" cx="46.5" cy="47.5" r="1.5"></circle>
                <circle id="Oval" fill="#FFFFFF" cx="55.5" cy="49.5" r="1.5"></circle>
                <circle id="Oval" fill="#FFFFFF" cx="20.5" cy="53.5" r="1.5"></circle>
                <circle id="Oval" fill="#FFFFFF" cx="27.5" cy="55.5" r="1.5"></circle>
                <circle id="Oval" fill="#FFFFFF" cx="35.5" cy="58.5" r="1.5"></circle>
                <circle id="Oval" fill="#FFFFFF" cx="44.5" cy="60.5" r="1.5"></circle>
                <circle id="Oval" fill="#FFFFFF" cx="53.5" cy="61.5" r="1.5"></circle>
                <circle id="Oval" fill="#FFFFFF" cx="69.5" cy="25.5" r="1.5"></circle>
                <circle id="Oval" fill="#FFFFFF" cx="67.5" cy="37.5" r="1.5"></circle>
                <circle id="Oval" fill="#FFFFFF" cx="64.5" cy="50.5" r="1.5"></circle>
                <circle id="Oval" fill="#FFFFFF" cx="62.5" cy="62.5" r="1.5"></circle>
                <circle id="Oval" fill="#FFFFFF" cx="78.5" cy="26.5" r="1.5"></circle>
                <circle id="Oval" fill="#FFFFFF" cx="76.5" cy="38.5" r="1.5"></circle>
                <circle id="Oval" fill="#FFFFFF" cx="73.5" cy="51.5" r="1.5"></circle>
                <circle id="Oval" fill="#FFFFFF" cx="71.5" cy="63.5" r="1.5"></circle>
            </g>
        </g>
    </g>
</svg>