<?xml version="1.0" encoding="UTF-8"?>
<svg width="117px" height="117px" viewBox="0 0 117 117" version="1.1" xmlns="http://www.w3.org/2000/svg" xmlns:xlink="http://www.w3.org/1999/xlink">
    <!-- Generator: Sketch 51.3 (57544) - http://www.bohemiancoding.com/sketch -->
    <title>Red Cat</title>
    <desc>Created with Sketch.</desc>
    <defs></defs>
    <g id="Page-3" stroke="none" stroke-width="1" fill="none" fill-rule="evenodd">
        <g id="logos" transform="translate(-327.000000, -560.000000)">
            <g id="Red-Cat" transform="translate(327.000000, 560.000000)">
                <path d="M116.1322,58.4639 C116.1322,90.2959 90.3272,116.0999 58.4962,116.0999 C26.6642,116.0999 0.8602,90.2959 0.8602,58.4639 C0.8602,26.6319 26.6642,0.8279 58.4962,0.8279 C90.3272,0.8279 116.1322,26.6319 116.1322,58.4639" id="Fill-467" fill="#C43A30"></path>
                <path d="M34.3246,31.6563 L29.5246,28.2363 L35.0136,27.2373 L39.3106,31.6563 L34.3246,31.6563 Z M77.6806,31.6563 L81.9776,27.2373 L87.4676,28.2363 L82.6676,31.6563 L77.6806,31.6563 Z M69.3996,90.4383 L67.9936,95.8403 L58.5346,95.8403 L48.9986,95.8403 L47.6366,90.6043 C47.7256,90.5733 47.8136,90.5363 47.8976,90.4913 L58.5246,84.9073 L69.3996,90.4383 Z M75.8736,70.2263 L77.0216,82.5373 L70.9866,87.0623 L60.3736,81.6653 L60.3736,75.9083 L70.5196,69.9983 C71.3246,69.5303 71.6506,68.5633 71.3106,67.7083 L71.3106,53.8333 L76.3866,48.6733 L79.8406,48.6733 C80.8686,48.6733 81.7046,47.8373 81.7046,46.8083 C81.7046,45.7803 80.8686,44.9443 79.8406,44.9443 L69.4466,44.9443 C68.4196,44.9443 67.5836,45.7803 67.5836,46.8083 L67.5836,67.3943 L58.5126,72.6773 L49.3826,67.3203 L49.3826,46.8083 C49.3826,45.7803 48.5466,44.9443 47.5186,44.9443 L37.1246,44.9443 C36.0956,44.9443 35.2606,45.7803 35.2606,46.8083 C35.2606,47.8373 36.0956,48.6733 37.1246,48.6733 L40.6026,48.6733 L45.6546,53.5873 L45.6546,68.1363 C45.6556,68.1813 45.6596,68.2233 45.6676,68.1853 C45.5896,68.9153 45.9446,69.6253 46.5746,69.9953 L56.6456,75.9043 L56.6456,81.6823 L46.1716,87.1863 L39.9706,82.5373 L41.1176,70.2273 C41.1596,69.7783 41.0386,69.3303 40.7746,68.9643 L28.5986,52.0673 L29.4036,44.5093 C29.4456,44.1203 29.3656,43.7333 29.1716,43.3913 L24.0076,34.2863 L25.6946,30.0853 L32.6456,35.0373 C32.9636,35.2643 33.3376,35.3853 33.7276,35.3853 L43.6396,35.3843 L58.3476,36.4303 C58.3946,36.4353 58.4386,36.4343 58.5086,36.4303 L58.6066,36.4333 L73.3166,35.3853 L83.2636,35.3853 C83.6536,35.3853 84.0276,35.2643 84.3456,35.0383 L91.2976,30.0853 L92.9846,34.2863 L87.8206,43.3913 L87.8196,43.3933 C87.6266,43.7353 87.5466,44.1223 87.5886,44.5093 L88.3926,52.0673 L76.2166,68.9643 C75.9536,69.3293 75.8326,69.7773 75.8736,70.2263 Z M37.3406,70.5773 L36.5636,78.9143 L26.9156,67.8943 L28.0076,57.6243 L37.3406,70.5773 Z M88.9846,57.6243 L90.0766,67.8943 L80.4286,78.9143 L79.6516,70.5773 L88.9846,57.6243 Z M96.7786,33.7313 L93.8636,26.4753 C93.8066,26.3413 93.7416,26.2223 93.6026,26.0393 C93.5276,25.9463 93.4486,25.8623 93.3446,25.7703 L93.2546,25.7033 C93.1716,25.6403 93.0846,25.5873 92.9946,25.5423 L92.8716,25.4813 C92.7616,25.4353 92.6476,25.3993 92.5836,25.3883 L81.6696,23.3923 C81.0586,23.2743 80.4356,23.4773 79.9976,23.9263 L72.4276,31.7113 L58.5316,32.7073 L44.5646,31.7113 L36.9936,23.9253 C36.5596,23.4803 35.9346,23.2783 35.3236,23.3913 L24.4536,25.3763 C24.3396,25.4013 24.2286,25.4363 24.1196,25.4823 L23.9976,25.5413 C23.9066,25.5883 23.8186,25.6423 23.7306,25.7083 L23.6366,25.7813 C23.5456,25.8603 23.4606,25.9493 23.4016,26.0253 L23.3266,26.1133 C23.2506,26.2223 23.1846,26.3413 23.1176,26.4993 L20.2136,33.7313 C20.0006,34.2613 20.0406,34.8493 20.3216,35.3443 L25.6326,44.7093 L23.1226,68.3113 C23.0676,68.8283 23.2316,69.3473 23.5736,69.7363 L36.6206,84.6373 L36.6956,84.7083 C36.7496,84.7623 36.8046,84.8173 36.8996,84.8943 L43.6066,89.9243 L45.7526,98.1733 C45.9666,98.9943 46.7086,99.5683 47.5566,99.5683 L69.4346,99.5683 C70.2846,99.5683 71.0256,98.9943 71.2376,98.1733 L73.3856,89.9243 L80.1266,84.8663 C80.1866,84.8173 80.2426,84.7623 80.2926,84.7123 L93.4186,69.7373 C93.7596,69.3483 93.9246,68.8293 93.8706,68.3113 L91.3586,44.7093 L96.6706,35.3443 C96.9516,34.8493 96.9916,34.2613 96.7786,33.7313 Z" id="Fill-469" fill="#ECDECC"></path>
            </g>
        </g>
    </g>
</svg>